<svg xmlns="http://www.w3.org/2000/svg" width="1230" height="634" viewBox="-50 -17.1 1230 633.1" font-family="Arial"><defs><marker id="arrow_solid_3a414a" viewBox="0 0 10 10" refX="9" refY="5" markerUnits="strokeWidth" markerWidth="8" markerHeight="8" orient="auto-start-reverse"><path d="M3 0.5 L9 5 L3 9.5 Z" fill="#3a414a" stroke="#3a414a" stroke-width="1.2"/></marker></defs><rect x="-50" y="-17.1" width="1230" height="633.1" fill="#fff"/><g data-node="d8b003fd-d538-45c6-acdf-294eb8723ffc"><rect x="140" y="36" width="120" height="48" rx="24" ry="24" fill="#edf5ff" stroke="#3a414a" stroke-width="2"/><g pointer-events="none"><text x="200" y="64.225" font-size="13" font-family="Arial" font-weight="400" text-anchor="middle" fill="#253247">Start</text></g></g><g data-node="97834f95-76c3-465f-a81d-7bb67556486e"><rect x="130" y="152" width="140" height="56" rx="6" fill="#edf5ff" stroke="#3a414a" stroke-width="2"/><g pointer-events="none"><text x="200" y="184.225" font-size="13" font-family="Arial" font-weight="400" text-anchor="middle" fill="#253247">Do something</text></g></g><g data-node="f5484fbc-a712-4f94-8893-c8b3cabe4ba4"><polygon points="200,255 275,300 200,345 125,300" fill="#fcfcca" stroke="#3a414a" stroke-width="2"/><g pointer-events="none"><text x="200" y="304.225" font-size="13" font-family="Arial" font-weight="400" text-anchor="middle" fill="#253247">Success?</text></g></g><g data-node="49f15af1-f947-4f2c-b4b1-0f721759a7d8"><polygon points="4,412 130,412 116,468 -10,468" fill="#e3fae3" stroke="#3a414a" stroke-width="2"/><g pointer-events="none"><text x="60" y="444.225" font-size="13" font-family="Arial" font-weight="400" text-anchor="middle" fill="#253247">Log error</text></g></g><g data-node="21869cd1-78ae-4078-815f-82e0dafc256b"><rect x="270" y="412" width="140" height="56" rx="6" fill="#edf5ff" stroke="#3a414a" stroke-width="2"/><g pointer-events="none"><text x="340" y="444.225" font-size="13" font-family="Arial" font-weight="400" text-anchor="middle" fill="#253247">Save result</text></g></g><g data-node="9544430f-4b79-4d12-a688-7f662e8bb4b9"><rect x="280" y="516" width="120" height="48" rx="24" ry="24" fill="#edf5ff" stroke="#3a414a" stroke-width="2"/><g pointer-events="none"><text x="340" y="544.225" font-size="13" font-family="Arial" font-weight="400" text-anchor="middle" fill="#253247">End</text></g></g><g data-edge="2871a78a-1d3a-43fb-bc17-08694063653d"><path d="M200 84 L200 148.136" fill="none" stroke="#3a414a" stroke-width="1.8" stroke-linecap="round" stroke-linejoin="round" marker-end="url(#arrow_solid_3a414a)"/></g><g data-edge="02768b30-cd09-4eb1-ae6b-79ea9a8cc4e8"><path d="M200 208 L200 251.136" fill="none" stroke="#3a414a" stroke-width="1.8" stroke-linecap="round" stroke-linejoin="round" marker-end="url(#arrow_solid_3a414a)"/></g><g data-edge="1427e922-8647-46c9-bb7d-83d7d490f79a"><path d="M200 345 L200 378.5 L60 378.5 L60 408.136" fill="none" stroke="#3a414a" stroke-width="1.8" stroke-linecap="round" stroke-linejoin="round" marker-end="url(#arrow_solid_3a414a)"/><rect x="45.330078125" y="383.15" width="29.33984375" height="24.200000000000003" rx="4" fill="#ffffff" stroke="#e2e8f0" stroke-width="0.7"/><text x="60" y="397.34999999999997" text-anchor="middle" font-family="Arial" font-size="12" fill="#3a414a" pointer-events="none">No</text></g><g data-edge="501106bf-acdc-432d-8c42-6ed200c65a65"><path d="M200 345 L200 378.5 L340 378.5 L340 408.136" fill="none" stroke="#3a414a" stroke-width="1.8" stroke-linecap="round" stroke-linejoin="round" marker-end="url(#arrow_solid_3a414a)"/><rect x="323.2119140625" y="383.15" width="33.576171875" height="24.200000000000003" rx="4" fill="#ffffff" stroke="#e2e8f0" stroke-width="0.7"/><text x="340" y="397.34999999999997" text-anchor="middle" font-family="Arial" font-size="12" fill="#3a414a" pointer-events="none">Yes</text></g><g data-edge="a1e3469f-a9a3-4320-9717-6e0e055d1a34"><path d="M60 468 L60 492 L256 492 L256 540 L276.136 540" fill="none" stroke="#3a414a" stroke-width="1.8" stroke-linecap="round" stroke-linejoin="round" marker-end="url(#arrow_solid_3a414a)"/></g><g data-edge="58258543-12c1-4e1a-b3a9-68ad7b4aab7a"><path d="M340 468 L340 512.136" fill="none" stroke="#3a414a" stroke-width="1.8" stroke-linecap="round" stroke-linejoin="round" marker-end="url(#arrow_solid_3a414a)"/></g><g data-node="32999e5d-9859-4950-a6b7-9b4057cc87b2"><rect x="30" y="72" width="140" height="56" rx="6" fill="#edf5ff" stroke="#3a414a" stroke-width="2"/><g pointer-events="none"><text x="100" y="104.225" font-size="13" font-family="Arial" font-weight="400" text-anchor="middle" fill="#253247">Alpha</text></g></g><g data-node="9754563c-8f00-4f04-af46-bd1c38d43f52"><rect x="330" y="72" width="140" height="56" rx="6" fill="#edf5ff" stroke="#3a414a" stroke-width="2"/><g pointer-events="none"><text x="400" y="104.225" font-size="13" font-family="Arial" font-weight="400" text-anchor="middle" fill="#253247">Beta</text></g></g><g data-node="c4e8ec46-ce51-4f47-9e88-4a94538ac527"><rect x="760" y="330" width="140" height="56" rx="6" fill="#93c5fd" stroke="#3a414a" stroke-width="2"/><g pointer-events="none"><text x="830" y="362.225" font-size="13" font-family="Arial" font-weight="400" text-anchor="middle" fill="#253247">Gamma</text></g></g><g data-node="4b28e412-4d26-45e8-b3e0-eb09a0bd6492"><rect x="1000" y="520" width="140" height="56" rx="6" fill="#edf5ff" stroke="#3a414a" stroke-width="2"/><g pointer-events="none"><text x="1070" y="552.225" font-size="13" font-family="Arial" font-weight="400" text-anchor="middle" fill="#253247">Blocker</text></g></g><g data-edge="7cf80555-3f0b-4551-a202-7b51db277bcc"><path d="M170 100 L194 100 L194 136 L22 136 L22 28 L306 28 L306 100 L326.136 100" fill="none" stroke="#3a414a" stroke-width="1.8" stroke-linecap="round" stroke-linejoin="round" marker-end="url(#arrow_solid_3a414a)"/><rect x="25.2119140625" y="15.899999999999999" width="33.576171875" height="24.200000000000003" rx="4" fill="#ffffff" stroke="#e2e8f0" stroke-width="0.7"/><text x="42" y="30.1" text-anchor="middle" font-family="Arial" font-size="12" fill="#3a414a" pointer-events="none">Yes</text></g><g data-edge="2aa99b0f-b467-460b-9c11-7312df2fa894"><path d="M470 100 L615 100 L615 358 L756.136 358" fill="none" stroke="#3a414a" stroke-width="1.8" stroke-linecap="round" stroke-linejoin="round" marker-end="url(#arrow_solid_3a414a)"/></g></svg>